<svg width="32" height="32" viewBox="0 0 32 32" fill="none" xmlns="http://www.w3.org/2000/svg">
<g clip-path="url(#clip0_105_1270)">
<path d="M20.0003 10.6667H18.2003C17.483 10.6667 17.3337 10.9614 17.3337 11.704V13.3334H20.0003L19.7217 16H17.3337V25.3334H13.3337V16H10.667V13.3334H13.3337V10.256C13.3337 7.89735 14.575 6.66669 17.3723 6.66669H20.0003V10.6667Z" fill="white"/>
<path d="M16 0C7.164 0 0 7.164 0 16C0 24.836 7.164 32 16 32C24.836 32 32 24.836 32 16C32 7.164 24.836 0 16 0ZM20 10.6667H18.2C17.4827 10.6667 17.3333 10.9613 17.3333 11.704V13.3333H20L19.7213 16H17.3333V25.3333H13.3333V16H10.6667V13.3333H13.3333V10.256C13.3333 7.89733 14.5747 6.66667 17.372 6.66667H20V10.6667Z" fill="#FF1E1E"/>
</g>
<defs>
<clipPath id="clip0_105_1270">
<rect width="32" height="32" fill="white"/>
</clipPath>
</defs>
</svg>
